<mxfile host="app.diagrams.net" modified="2023-05-30T12:28:51.768Z" agent="Mozilla/5.0 (Macintosh; Intel Mac OS X 10_15_7) AppleWebKit/537.36 (KHTML, like Gecko) Chrome/112.0.0.0 Safari/537.36" etag="btWdX_1gytLRgggkY2H1" version="21.3.5" type="github">
  <diagram name="Page-1" id="c7558073-3199-34d8-9f00-42111426c3f3">
    <mxGraphModel dx="1050" dy="575" grid="0" gridSize="12" guides="1" tooltips="1" connect="1" arrows="1" fold="1" page="0" pageScale="1" pageWidth="826" pageHeight="1169" background="none" math="0" shadow="0">
      <root>
        <mxCell id="0" />
        <mxCell id="1" parent="0" />
        <mxCell id="cp0_-7KOc1A2dcjXhhcK-96" value="" style="rounded=1;whiteSpace=wrap;html=1;fillColor=#660000;arcSize=24;" vertex="1" parent="1">
          <mxGeometry x="70" y="250" width="100" height="50" as="geometry" />
        </mxCell>
        <mxCell id="cp0_-7KOc1A2dcjXhhcK-98" value="" style="rounded=1;whiteSpace=wrap;html=1;fillColor=#660000;" vertex="1" parent="1">
          <mxGeometry x="70" y="330" width="100" height="50" as="geometry" />
        </mxCell>
        <mxCell id="cp0_-7KOc1A2dcjXhhcK-99" value="&lt;font style=&quot;font-size: 16px;&quot; color=&quot;#ffffff&quot;&gt;stdio.h&lt;/font&gt;" style="text;html=1;strokeColor=none;fillColor=none;align=center;verticalAlign=middle;whiteSpace=wrap;rounded=0;" vertex="1" parent="1">
          <mxGeometry x="90" y="340" width="60" height="30" as="geometry" />
        </mxCell>
        <mxCell id="cp0_-7KOc1A2dcjXhhcK-101" value="" style="shape=curlyBracket;whiteSpace=wrap;html=1;rounded=1;flipH=1;labelPosition=right;verticalLabelPosition=middle;align=left;verticalAlign=middle;size=0.5;strokeWidth=2;" vertex="1" parent="1">
          <mxGeometry x="170" y="280" width="70" height="80" as="geometry" />
        </mxCell>
        <mxCell id="cp0_-7KOc1A2dcjXhhcK-107" value="" style="endArrow=classic;html=1;rounded=0;strokeWidth=2;" edge="1" parent="1">
          <mxGeometry width="50" height="50" relative="1" as="geometry">
            <mxPoint x="240" y="320" as="sourcePoint" />
            <mxPoint x="250" y="320" as="targetPoint" />
            <Array as="points">
              <mxPoint x="230" y="320" />
              <mxPoint x="240" y="320" />
            </Array>
          </mxGeometry>
        </mxCell>
        <mxCell id="cp0_-7KOc1A2dcjXhhcK-110" value="&lt;font style=&quot;font-size: 16px;&quot; color=&quot;#ffffff&quot;&gt;main.c&lt;/font&gt;" style="text;html=1;strokeColor=none;fillColor=none;align=center;verticalAlign=middle;whiteSpace=wrap;rounded=0;" vertex="1" parent="1">
          <mxGeometry x="90" y="260" width="60" height="30" as="geometry" />
        </mxCell>
        <mxCell id="cp0_-7KOc1A2dcjXhhcK-112" value="&lt;font color=&quot;#0a0a0a&quot; style=&quot;font-size: 16px;&quot;&gt;预处理&lt;/font&gt;" style="text;html=1;strokeColor=none;fillColor=none;align=center;verticalAlign=middle;whiteSpace=wrap;rounded=0;" vertex="1" parent="1">
          <mxGeometry x="200" y="240" width="60" height="30" as="geometry" />
        </mxCell>
        <mxCell id="cp0_-7KOc1A2dcjXhhcK-120" style="edgeStyle=orthogonalEdgeStyle;rounded=0;orthogonalLoop=1;jettySize=auto;html=1;entryX=0;entryY=0.5;entryDx=0;entryDy=0;strokeWidth=2;" edge="1" parent="1" source="cp0_-7KOc1A2dcjXhhcK-113" target="cp0_-7KOc1A2dcjXhhcK-117">
          <mxGeometry relative="1" as="geometry" />
        </mxCell>
        <mxCell id="cp0_-7KOc1A2dcjXhhcK-113" value="" style="rounded=1;whiteSpace=wrap;html=1;fillColor=#FF3333;" vertex="1" parent="1">
          <mxGeometry x="250" y="290" width="120" height="60" as="geometry" />
        </mxCell>
        <mxCell id="cp0_-7KOc1A2dcjXhhcK-115" value="&lt;font color=&quot;#ffffff&quot; style=&quot;font-size: 18px;&quot;&gt;main.i&lt;/font&gt;" style="text;html=1;strokeColor=none;fillColor=none;align=center;verticalAlign=middle;whiteSpace=wrap;rounded=0;" vertex="1" parent="1">
          <mxGeometry x="280" y="305" width="60" height="30" as="geometry" />
        </mxCell>
        <mxCell id="cp0_-7KOc1A2dcjXhhcK-124" style="edgeStyle=orthogonalEdgeStyle;rounded=0;orthogonalLoop=1;jettySize=auto;html=1;exitX=1;exitY=0.5;exitDx=0;exitDy=0;entryX=0;entryY=0.5;entryDx=0;entryDy=0;strokeWidth=2;" edge="1" parent="1" source="cp0_-7KOc1A2dcjXhhcK-117" target="cp0_-7KOc1A2dcjXhhcK-123">
          <mxGeometry relative="1" as="geometry" />
        </mxCell>
        <mxCell id="cp0_-7KOc1A2dcjXhhcK-117" value="" style="rounded=1;whiteSpace=wrap;html=1;fillColor=#004C99;" vertex="1" parent="1">
          <mxGeometry x="408" y="290" width="120" height="60" as="geometry" />
        </mxCell>
        <mxCell id="cp0_-7KOc1A2dcjXhhcK-121" value="&lt;font style=&quot;font-size: 18px;&quot; color=&quot;#ffffff&quot;&gt;main.s&lt;/font&gt;" style="text;html=1;strokeColor=none;fillColor=none;align=center;verticalAlign=middle;whiteSpace=wrap;rounded=0;" vertex="1" parent="1">
          <mxGeometry x="438" y="305" width="60" height="30" as="geometry" />
        </mxCell>
        <mxCell id="cp0_-7KOc1A2dcjXhhcK-122" value="&lt;font color=&quot;#0a0a0a&quot; style=&quot;font-size: 16px;&quot;&gt;编译&lt;/font&gt;" style="text;html=1;strokeColor=none;fillColor=none;align=center;verticalAlign=middle;whiteSpace=wrap;rounded=0;" vertex="1" parent="1">
          <mxGeometry x="364" y="250" width="60" height="30" as="geometry" />
        </mxCell>
        <mxCell id="cp0_-7KOc1A2dcjXhhcK-123" value="" style="rounded=1;whiteSpace=wrap;html=1;fillColor=#67AB9F;" vertex="1" parent="1">
          <mxGeometry x="576" y="290" width="120" height="60" as="geometry" />
        </mxCell>
        <mxCell id="cp0_-7KOc1A2dcjXhhcK-125" value="&lt;font style=&quot;font-size: 18px;&quot; color=&quot;#ffffff&quot;&gt;main.o&lt;/font&gt;" style="text;html=1;strokeColor=none;fillColor=none;align=center;verticalAlign=middle;whiteSpace=wrap;rounded=0;" vertex="1" parent="1">
          <mxGeometry x="600" y="305" width="60" height="30" as="geometry" />
        </mxCell>
        <mxCell id="cp0_-7KOc1A2dcjXhhcK-126" value="&lt;font color=&quot;#0a0a0a&quot; style=&quot;font-size: 16px;&quot;&gt;汇编&lt;/font&gt;" style="text;html=1;strokeColor=none;fillColor=none;align=center;verticalAlign=middle;whiteSpace=wrap;rounded=0;" vertex="1" parent="1">
          <mxGeometry x="528" y="252" width="60" height="30" as="geometry" />
        </mxCell>
        <mxCell id="cp0_-7KOc1A2dcjXhhcK-132" value="" style="group" vertex="1" connectable="0" parent="1">
          <mxGeometry x="546" y="384" width="180" height="60" as="geometry" />
        </mxCell>
        <mxCell id="cp0_-7KOc1A2dcjXhhcK-129" value="" style="rounded=1;whiteSpace=wrap;html=1;fillColor=#67AB9F;" vertex="1" parent="cp0_-7KOc1A2dcjXhhcK-132">
          <mxGeometry x="-30" width="180" height="60" as="geometry" />
        </mxCell>
        <mxCell id="cp0_-7KOc1A2dcjXhhcK-130" value="&lt;font color=&quot;#3333ff&quot; style=&quot;font-size: 18px;&quot;&gt;libSystem.B.dylib&lt;/font&gt;" style="text;html=1;strokeColor=none;fillColor=none;align=center;verticalAlign=middle;whiteSpace=wrap;rounded=0;movable=1;resizable=1;rotatable=1;deletable=1;editable=1;locked=0;connectable=1;" vertex="1" parent="cp0_-7KOc1A2dcjXhhcK-132">
          <mxGeometry x="30" y="15" width="60" height="30" as="geometry" />
        </mxCell>
        <mxCell id="cp0_-7KOc1A2dcjXhhcK-137" style="edgeStyle=orthogonalEdgeStyle;rounded=0;orthogonalLoop=1;jettySize=auto;html=1;exitX=0.1;exitY=0.5;exitDx=0;exitDy=0;exitPerimeter=0;entryX=0;entryY=0.5;entryDx=0;entryDy=0;strokeWidth=2;" edge="1" parent="1" source="cp0_-7KOc1A2dcjXhhcK-134" target="cp0_-7KOc1A2dcjXhhcK-135">
          <mxGeometry relative="1" as="geometry" />
        </mxCell>
        <mxCell id="cp0_-7KOc1A2dcjXhhcK-134" value="" style="shape=curlyBracket;whiteSpace=wrap;html=1;rounded=1;flipH=1;labelPosition=right;verticalLabelPosition=middle;align=left;verticalAlign=middle;size=0.5;strokeWidth=2;" vertex="1" parent="1">
          <mxGeometry x="696" y="330" width="70" height="80" as="geometry" />
        </mxCell>
        <mxCell id="cp0_-7KOc1A2dcjXhhcK-135" value="" style="rounded=1;whiteSpace=wrap;html=1;fillColor=#007FFF;arcSize=50;" vertex="1" parent="1">
          <mxGeometry x="766" y="344" width="84" height="52" as="geometry" />
        </mxCell>
        <mxCell id="cp0_-7KOc1A2dcjXhhcK-136" value="&lt;font style=&quot;font-size: 18px;&quot; color=&quot;#ffffff&quot;&gt;a.out&lt;/font&gt;" style="text;html=1;strokeColor=none;fillColor=none;align=center;verticalAlign=middle;whiteSpace=wrap;rounded=0;" vertex="1" parent="1">
          <mxGeometry x="778" y="354" width="60" height="30" as="geometry" />
        </mxCell>
        <mxCell id="cp0_-7KOc1A2dcjXhhcK-140" value="&lt;font color=&quot;#0a0a0a&quot; style=&quot;font-size: 16px;&quot;&gt;链接&lt;/font&gt;" style="text;html=1;strokeColor=none;fillColor=none;align=center;verticalAlign=middle;whiteSpace=wrap;rounded=0;" vertex="1" parent="1">
          <mxGeometry x="724" y="300" width="60" height="30" as="geometry" />
        </mxCell>
      </root>
    </mxGraphModel>
  </diagram>
</mxfile>
